<?xml version="1.0" encoding="utf-8"?>
<!-- Generator: Adobe Illustrator 16.0.0, SVG Export Plug-In . SVG Version: 6.00 Build 0)  -->
<!DOCTYPE svg PUBLIC "-//W3C//DTD SVG 1.1//EN" "http://www.w3.org/Graphics/SVG/1.1/DTD/svg11.dtd">
<svg version="1.1" id="Calque_1" xmlns="http://www.w3.org/2000/svg" xmlns:xlink="http://www.w3.org/1999/xlink" x="0px" y="0px"
	 width="18.102px" height="29.234px" viewBox="0 0 18.102 29.234" enable-background="new 0 0 18.102 29.234" xml:space="preserve">
<g>
	<polygon display="none" fill="#FFFFFF" points="-87.181,33.823 -75.646,33.823 -72.048,13.412 -81.854,3.605 	"/>
	<polygon display="none" fill="#FFFFFF" points="-19.603,12.498 -19.603,12.497 -16.842,27.281 -15.618,33.823 -4.087,33.823 
		-4.249,32.948 -9.943,2.495 -19.657,12.209 	"/>
	<polygon display="none" fill="#FFFFFF" points="-19.657,12.209 -9.943,2.495 -11.266,-4.588 -18.781,-4.588 -40.75,17.381 
		-40.75,33.302 	"/>
	<polygon display="none" fill="#FFFFFF" points="-52.11,17.28 -68.193,1.198 -73.978,-4.588 -80.422,-4.588 -81.861,3.595 
		-81.854,3.605 -81.221,0.013 -70.033,1.987 -72.048,13.412 -72.048,13.412 -54.483,30.968 -52.11,28.595 	"/>
	<polygon display="none" fill="#FFFFFF" points="-81.221,0.013 -81.854,3.605 -72.048,13.412 -70.033,1.987 	"/>
	<polygon display="none" fill="#FFFFFF" points="-81.221,0.013 -81.854,3.605 -72.048,13.412 -70.033,1.987 	"/>
	<polygon display="none" fill="#FFFFFF" points="-54.483,30.968 -52.11,33.339 -52.11,28.595 	"/>
	<polygon display="none" fill="#FFFFFF" points="-40.75,17.381 -40.75,-4.588 -52.11,-4.588 -52.11,17.28 -52.11,17.28 
		-52.11,28.595 -52.11,33.339 -40.75,33.339 -40.75,33.302 	"/>
	<polygon display="none" fill="#FFFFFF" points="-102.764,3.641 -106.406,-0.001 -120.867,14.46 -120.71,14.617 -120.867,14.776 
		-106.406,29.236 -102.764,25.594 -113.741,14.617 	"/>
	<polygon fill="#FFFFFF" points="18.102,14.46 3.642,-0.001 0,3.641 10.976,14.617 0,25.594 3.642,29.236 18.102,14.776 
		17.946,14.617 	"/>
	
		<rect x="-112.578" y="11.662" transform="matrix(-0.1736 0.9848 -0.9848 -0.1736 -95.244 109.1551)" display="none" fill="#FFFFFF" width="38.317" height="5.908"/>
</g>
</svg>
