<?xml version="1.0" encoding="utf-8"?>
<!-- Generator: Adobe Illustrator 16.0.0, SVG Export Plug-In . SVG Version: 6.00 Build 0)  -->
<!DOCTYPE svg PUBLIC "-//W3C//DTD SVG 1.1//EN" "http://www.w3.org/Graphics/SVG/1.1/DTD/svg11.dtd">
<svg version="1.1" id="Capa_1" xmlns="http://www.w3.org/2000/svg" xmlns:xlink="http://www.w3.org/1999/xlink" x="0px" y="0px"
	 width="1530.709px" height="1530.709px" viewBox="0 0 1530.709 1530.709" enable-background="new 0 0 1530.709 1530.709"
	 xml:space="preserve">
<g>
	<g>
		<path fill="#1E4B4B" d="M765.259,15.932C342.688,15.932,0,359.959,0,784.348c0,339.436,219.273,627.4,523.502,729.097
			c38.268,7.079,52.236-16.646,52.236-37.024c0-18.272-0.67-66.586-1.053-130.685c-212.864,46.399-257.829-103.036-257.829-103.036
			c-34.728-88.78-84.954-112.411-84.954-112.411c-69.552-47.644,5.166-46.687,5.166-46.687
			c76.822,5.453,117.195,79.214,117.195,79.214c68.308,117.387,179.188,83.52,222.813,63.812
			c6.888-49.652,26.691-83.52,48.601-102.749c-169.909-19.421-348.619-85.337-348.619-379.711
			c0-83.902,29.849-152.497,78.831-206.264c-7.94-19.421-34.154-97.583,7.462-203.297c0,0,64.29-20.665,210.473,78.735
			c61.037-17.029,126.475-25.543,191.626-25.83c64.96,0.383,130.493,8.801,191.626,25.926
			c146.087-99.4,210.281-78.735,210.281-78.735c41.712,105.81,15.498,183.876,7.653,203.297
			c49.078,53.767,78.641,122.361,78.641,206.263c0,295.141-178.902,360.1-349.385,379.139
			c27.457,23.726,51.948,70.604,51.948,142.26c0,102.749-0.957,185.599-0.957,210.76c0,20.569,13.776,44.486,52.618,36.929
			c303.751-101.792,522.833-389.661,522.833-729.001C1530.709,359.959,1188.022,15.932,765.259,15.932z"/>
	</g>
</g>
</svg>
