<?xml version="1.0" encoding="utf-8"?>
<!-- Generator: Adobe Illustrator 16.0.0, SVG Export Plug-In . SVG Version: 6.00 Build 0)  -->
<!DOCTYPE svg PUBLIC "-//W3C//DTD SVG 1.1//EN" "http://www.w3.org/Graphics/SVG/1.1/DTD/svg11.dtd">
<svg version="1.1" id="Calque_1" xmlns="http://www.w3.org/2000/svg" xmlns:xlink="http://www.w3.org/1999/xlink" x="0px" y="0px"
	 width="17.404px" height="17.404px" viewBox="0 0 17.404 17.404" enable-background="new 0 0 17.404 17.404" xml:space="preserve">
<linearGradient id="SVGID_1_" gradientUnits="userSpaceOnUse" x1="1.48" y1="-0.1382" x2="15.9632" y2="14.3451" gradientTransform="matrix(1 0 0 -1 -0.02 15.8057)">
	<stop  offset="0.1584" style="stop-color:#878582"/>
	<stop  offset="0.7327" style="stop-color:#1E4B4B"/>
</linearGradient>
<path fill="url(#SVGID_1_)" d="M17.352,5.114c-0.042-0.926-0.189-1.559-0.404-2.112c-0.219-0.581-0.561-1.106-1.004-1.542
	c-0.435-0.442-0.96-0.784-1.541-1.003c-0.554-0.216-1.187-0.362-2.112-0.404C11.362,0.011,11.065,0,8.702,0s-2.66,0.011-3.588,0.053
	C4.188,0.095,3.556,0.241,3.002,0.457C2.421,0.676,1.896,1.018,1.461,1.46C1.018,1.896,0.675,2.421,0.457,3.002
	C0.242,3.556,0.095,4.188,0.053,5.114C0.01,6.042,0,6.339,0,8.702s0.01,2.66,0.053,3.588c0.042,0.926,0.189,1.559,0.404,2.113
	c0.219,0.58,0.561,1.105,1.004,1.541c0.435,0.442,0.96,0.784,1.541,1.003c0.554,0.216,1.187,0.362,2.112,0.404
	c0.929,0.043,1.225,0.053,3.588,0.053s2.66-0.01,3.588-0.053c0.927-0.042,1.559-0.188,2.112-0.404
	c1.169-0.452,2.093-1.376,2.545-2.544c0.215-0.555,0.362-1.188,0.404-2.113c0.042-0.928,0.053-1.225,0.053-3.588
	S17.394,6.042,17.352,5.114z M15.786,12.219c-0.039,0.849-0.181,1.309-0.3,1.616c-0.293,0.759-0.893,1.358-1.652,1.651
	c-0.307,0.119-0.767,0.261-1.615,0.3c-0.918,0.042-1.193,0.051-3.517,0.051s-2.599-0.009-3.517-0.051
	c-0.849-0.039-1.309-0.181-1.615-0.3c-0.379-0.14-0.721-0.362-1.001-0.651c-0.289-0.28-0.512-0.622-0.651-1
	c-0.119-0.308-0.261-0.768-0.3-1.616c-0.042-0.917-0.051-1.192-0.051-3.517s0.009-2.599,0.051-3.517
	c0.039-0.849,0.181-1.309,0.3-1.615C2.058,3.192,2.28,2.85,2.569,2.569C2.85,2.28,3.191,2.058,3.57,1.919
	c0.307-0.12,0.767-0.262,1.615-0.301c0.918-0.041,1.193-0.051,3.517-0.051l0,0c2.323,0,2.599,0.01,3.517,0.051
	c0.849,0.039,1.309,0.182,1.615,0.301c0.378,0.139,0.721,0.361,1.001,0.65c0.289,0.28,0.512,0.623,0.65,1.001
	c0.12,0.307,0.262,0.767,0.301,1.615c0.041,0.918,0.051,1.192,0.051,3.517S15.827,11.302,15.786,12.219z"/>
<linearGradient id="SVGID_2_" gradientUnits="userSpaceOnUse" x1="5.562" y1="4.0757" x2="11.8811" y2="10.3948" gradientTransform="matrix(1 0 0 -1 -0.02 15.8057)">
	<stop  offset="0.1584" style="stop-color:#878582"/>
	<stop  offset="0.7327" style="stop-color:#1E4B4B"/>
</linearGradient>
<path fill="url(#SVGID_2_)" d="M8.702,4.102c-2.468,0-4.469,2.001-4.469,4.469s2.001,4.469,4.469,4.469s4.469-2.001,4.469-4.469
	S11.17,4.102,8.702,4.102z M8.702,11.472c-1.603,0-2.901-1.299-2.901-2.901S7.1,5.669,8.702,5.669s2.901,1.299,2.901,2.901
	S10.304,11.472,8.702,11.472z"/>
<path fill="#5D5D5D" d="M14.215,3.766c0,0.577-0.468,1.045-1.044,1.045c-0.577,0-1.045-0.468-1.045-1.045
	c0-0.576,0.468-1.044,1.045-1.044C13.747,2.722,14.215,3.189,14.215,3.766z"/>
</svg>
